<svg width="12" height="21" viewBox="0 0 12 21" fill="none" xmlns="http://www.w3.org/2000/svg">
<path d="M1.52595 4.57764e-05C1.1375 -0.00300789 0.761186 0.143682 0.466571 0.413004C0.323922 0.541243 0.208596 0.70031 0.128203 0.879633C0.0478092 1.05896 0.0041756 1.25444 0.000285433 1.45306C-0.00360473 1.65169 0.0323088 1.84889 0.105611 2.03162C0.178914 2.21435 0.2879 2.37844 0.425404 2.51288L8.35295 10.501L0.425404 18.4892C0.2879 18.6237 0.178914 18.7878 0.105611 18.9705C0.0323088 19.1532 -0.00360473 19.3504 0.000285433 19.5491C0.0041756 19.7477 0.0478092 19.9432 0.128203 20.1225C0.208596 20.3018 0.323922 20.4609 0.466571 20.5891C0.770667 20.8613 1.15712 21.0071 1.55447 20.9997C1.95182 20.9923 2.33315 20.8322 2.62811 20.5489L11.5772 11.5318C11.7105 11.4007 11.8169 11.2417 11.8897 11.0647C11.9624 10.8878 12 10.6968 12 10.5037C12 10.3106 11.9624 10.1195 11.8897 9.94261C11.8169 9.76569 11.7105 9.60668 11.5772 9.47561L2.62811 0.460266C2.32961 0.162483 1.93518 -0.00222778 1.52595 4.57764e-05Z" fill="#009B3E"/>
</svg>
