<svg width="12" height="21" viewBox="0 0 12 21" fill="none" xmlns="http://www.w3.org/2000/svg">
<path d="M10.474 4.57764e-05C10.8625 -0.00300789 11.2388 0.143682 11.5334 0.413004C11.6761 0.541243 11.7914 0.70031 11.8718 0.879633C11.9522 1.05896 11.9958 1.25444 11.9997 1.45306C12.0036 1.65169 11.9677 1.84889 11.8944 2.03162C11.8211 2.21435 11.7121 2.37844 11.5746 2.51288L3.64705 10.501L11.5746 18.4892C11.7121 18.6237 11.8211 18.7878 11.8944 18.9705C11.9677 19.1532 12.0036 19.3504 11.9997 19.5491C11.9958 19.7477 11.9522 19.9432 11.8718 20.1225C11.7914 20.3018 11.6761 20.4609 11.5334 20.5891C11.2293 20.8613 10.8429 21.0071 10.4455 20.9997C10.0482 20.9923 9.66685 20.8322 9.37189 20.5489L0.42281 11.5318C0.289489 11.4007 0.183105 11.2417 0.110346 11.0647C0.0375862 10.8878 0 10.6968 0 10.5037C0 10.3106 0.0375862 10.1195 0.110346 9.94261C0.183105 9.76569 0.289489 9.60668 0.42281 9.47561L9.37189 0.460266C9.67039 0.162483 10.0648 -0.00222778 10.474 4.57764e-05Z" fill="#009B3E"/>
</svg>
